<?xml version="1.0" encoding="utf-8"?>
<!-- Generator: Adobe Illustrator 16.0.0, SVG Export Plug-In . SVG Version: 6.00 Build 0)  -->
<!DOCTYPE svg PUBLIC "-//W3C//DTD SVG 1.1//EN" "http://www.w3.org/Graphics/SVG/1.1/DTD/svg11.dtd">
<svg version="1.1" xmlns="http://www.w3.org/2000/svg" xmlns:xlink="http://www.w3.org/1999/xlink" x="0px" y="0px" width="256px"
	 height="256px" viewBox="327.5 -426.5 256 256" enable-background="new 327.5 -426.5 256 256" xml:space="preserve">
<g id="Activities">
	<g>
		<path fill="white" id="scissors_7_" fill-rule="evenodd" clip-rule="evenodd" d="M445.012-346.948c3.958,6.509,8.501,10.766,13.627,12.774
			c5.128,2.008,9.314,1.166,12.578-2.532c2.797-3.131,4.193-7.671,4.193-13.618c0-8.033-2.29-15.745-6.873-23.136
			c-3.958-6.506-8.501-10.763-13.624-12.771c-5.128-2.008-9.321-1.166-12.586,2.529c-2.792,3.134-4.186,7.671-4.186,13.617
			C438.142-362.05,440.43-354.34,445.012-346.948z M531.787-336.705c3.262,3.697,7.451,4.54,12.575,2.532
			c5.126-2.008,9.673-6.266,13.631-12.774c4.582-7.392,6.87-15.103,6.87-23.136c0-5.946-1.397-10.483-4.189-13.617
			c-3.262-3.694-7.458-4.537-12.582-2.529c-5.123,2.009-9.667,6.266-13.628,12.771c-4.583,7.391-6.873,15.103-6.873,23.136
			C527.591-344.376,528.99-339.836,531.787-336.705z M501.5-268.5l-46.359,74.953c-1.55,2.249-3.723,3.253-6.521,3.012
			c-2.715-0.401-4.696-1.807-5.939-4.217l-7.454-15.425c-0.544-1.043-0.815-2.209-0.815-3.493c0-1.367,0.311-2.611,0.933-3.737
			l45.076-83.147l-7.686-13.255c-0.312-0.642-0.507-1.123-0.584-1.445c-3.806,1.126-7.571,1.528-11.298,1.205
			c-5.979-0.563-11.707-2.812-17.181-6.749c-5.476-3.935-10.272-9.239-14.384-15.906c-6.524-10.605-9.788-21.73-9.788-33.379
			c0-10.924,3.031-19.843,9.085-26.751c6.525-7.23,14.562-10.404,24.115-9.521c5.901,0.563,11.608,2.812,17.12,6.749
			s10.325,9.199,14.444,15.787c6.521,10.602,9.784,21.77,9.784,33.497c0,6.67-1.205,12.735-3.612,18.197
			c1.007,0.725,1.862,1.607,2.561,2.651l8.505,14.7l8.505-14.7c0.698-1.044,1.551-1.926,2.559-2.651
			c-2.404-5.462-3.609-11.527-3.609-18.197c0-11.728,3.26-22.896,9.781-33.497c4.121-6.588,8.932-11.85,14.443-15.787
			c5.516-3.938,11.219-6.186,17.124-6.749c4.581-0.402,8.968,0.22,13.161,1.87c4.194,1.646,7.804,4.198,10.832,7.651
			c6.136,6.829,9.202,15.745,9.202,26.751c0,11.649-3.259,22.774-9.783,33.379c-4.038,6.667-8.815,11.971-14.326,15.906
			c-5.516,3.938-11.26,6.186-17.241,6.749c-3.725,0.323-7.49-0.079-11.295-1.205c-0.079,0.323-0.274,0.803-0.585,1.445
			l-7.688,13.255l45.079,83.147c0.619,1.126,0.934,2.371,0.934,3.737c0,1.284-0.274,2.449-0.819,3.493l-7.451,15.425
			c-1.244,2.41-3.225,3.816-5.942,4.217c-2.798,0.241-4.971-0.763-6.52-3.012L501.5-268.5z M510.5-290.498
			c0,2.165-0.792,4.04-2.375,5.625c-1.587,1.58-3.459,2.373-5.625,2.373s-4.042-0.793-5.627-2.373
			c-1.585-1.585-2.373-3.46-2.373-5.625c0-2.168,0.788-4.043,2.373-5.625c1.585-1.584,3.461-2.377,5.627-2.377
			s4.038,0.793,5.625,2.377C509.708-294.542,510.5-292.667,510.5-290.498z"/>
		<path fill="white" id="fork_7_" fill-rule="evenodd" clip-rule="evenodd" d="M386.024-299.992c6.865-1.124,12.727-4.833,15.105-8.091
			c2.841-4.116,4.37-8.654,4.37-13.416v-77.215c0-2.158-0.877-3.894-2.402-5.629c-1.529-1.512-3.271-2.158-5.239-2.158
			c-2.19,0-3.932,0.646-5.471,2.158c-1.526,1.735-2.403,3.472-2.403,5.629v50.176c0,1.947-0.866,3.902-2.405,5.415
			c-1.529,1.512-3.271,2.16-5.459,2.16c-2.183,0-3.936-0.648-5.463-2.16c-1.525-1.513-2.402-3.468-2.402-5.415v-50.176
			c0-2.158-0.867-3.894-2.397-5.629c-1.538-1.512-3.278-2.158-5.243-2.158c-2.192,0-3.937,0.646-5.462,2.158
			c-1.53,1.735-2.403,3.472-2.403,5.629v50.176c0,1.947-0.877,3.902-2.406,5.415c-1.529,1.512-3.282,2.16-5.459,2.16
			c-2.194,0-3.936-0.648-5.465-2.16c-1.536-1.513-2.4-3.468-2.4-5.415v-50.176c0-2.158-0.877-3.894-2.405-5.629
			c-1.53-1.512-3.283-2.158-5.248-2.158c-2.182,0-3.933,0.646-5.459,2.158c-1.529,1.735-2.406,3.472-2.406,5.629v77.215
			c0,4.761,1.529,9.299,4.371,13.416c2.461,3.369,8.271,7.31,15.809,8.232v93.699c0,4.348,1.255,8.04,3.76,11.081
			c2.516,3.049,5.556,4.571,8.966,4.571h12.9c3.403,0,6.451-1.521,8.959-4.571c2.507-3.041,3.76-6.732,3.76-11.081V-299.992z"/>
	</g>
	<g>
		<path fill="white" id="scissors_6_" fill-rule="evenodd" clip-rule="evenodd" d="M445.012-346.948c3.958,6.509,8.501,10.766,13.627,12.774
			c5.128,2.008,9.314,1.166,12.578-2.532c2.797-3.131,4.193-7.671,4.193-13.618c0-8.033-2.29-15.745-6.873-23.136
			c-3.958-6.506-8.501-10.763-13.624-12.771c-5.128-2.008-9.321-1.166-12.586,2.529c-2.792,3.134-4.186,7.671-4.186,13.617
			C438.142-362.05,440.43-354.34,445.012-346.948z M531.787-336.705c3.262,3.697,7.451,4.54,12.575,2.532
			c5.126-2.008,9.673-6.266,13.631-12.774c4.582-7.392,6.87-15.103,6.87-23.136c0-5.946-1.397-10.483-4.189-13.617
			c-3.262-3.694-7.458-4.537-12.582-2.529c-5.123,2.009-9.667,6.266-13.628,12.771c-4.583,7.391-6.873,15.103-6.873,23.136
			C527.591-344.376,528.99-339.836,531.787-336.705z M501.5-268.5l-46.359,74.953c-1.55,2.249-3.723,3.253-6.521,3.012
			c-2.715-0.401-4.696-1.807-5.939-4.217l-7.454-15.425c-0.544-1.043-0.815-2.209-0.815-3.493c0-1.367,0.311-2.611,0.933-3.737
			l45.076-83.147l-7.686-13.255c-0.312-0.642-0.507-1.123-0.584-1.445c-3.806,1.126-7.571,1.528-11.298,1.205
			c-5.979-0.563-11.707-2.812-17.181-6.749c-5.476-3.935-10.272-9.239-14.384-15.906c-6.524-10.605-9.788-21.73-9.788-33.379
			c0-10.924,3.031-19.843,9.085-26.751c6.525-7.23,14.562-10.404,24.115-9.521c5.901,0.563,11.608,2.812,17.12,6.749
			s10.325,9.199,14.444,15.787c6.521,10.602,9.784,21.77,9.784,33.497c0,6.67-1.205,12.735-3.612,18.197
			c1.007,0.725,1.862,1.607,2.561,2.651l8.505,14.7l8.505-14.7c0.698-1.044,1.551-1.926,2.559-2.651
			c-2.404-5.462-3.609-11.527-3.609-18.197c0-11.728,3.26-22.896,9.781-33.497c4.121-6.588,8.932-11.85,14.443-15.787
			c5.516-3.938,11.219-6.186,17.124-6.749c4.581-0.402,8.968,0.22,13.161,1.87c4.194,1.646,7.804,4.198,10.832,7.651
			c6.136,6.829,9.202,15.745,9.202,26.751c0,11.649-3.259,22.774-9.783,33.379c-4.038,6.667-8.815,11.971-14.326,15.906
			c-5.516,3.938-11.26,6.186-17.241,6.749c-3.725,0.323-7.49-0.079-11.295-1.205c-0.079,0.323-0.274,0.803-0.585,1.445
			l-7.688,13.255l45.079,83.147c0.619,1.126,0.934,2.371,0.934,3.737c0,1.284-0.274,2.449-0.819,3.493l-7.451,15.425
			c-1.244,2.41-3.225,3.816-5.942,4.217c-2.798,0.241-4.971-0.763-6.52-3.012L501.5-268.5z M510.5-290.498
			c0,2.165-0.792,4.04-2.375,5.625c-1.587,1.58-3.459,2.373-5.625,2.373s-4.042-0.793-5.627-2.373
			c-1.585-1.585-2.373-3.46-2.373-5.625c0-2.168,0.788-4.043,2.373-5.625c1.585-1.584,3.461-2.377,5.627-2.377
			s4.038,0.793,5.625,2.377C509.708-294.542,510.5-292.667,510.5-290.498z"/>
		<path fill="white" id="fork_6_" fill-rule="evenodd" clip-rule="evenodd" d="M386.024-299.992c6.865-1.124,12.727-4.833,15.105-8.091
			c2.841-4.116,4.37-8.654,4.37-13.416v-77.215c0-2.158-0.877-3.894-2.402-5.629c-1.529-1.512-3.271-2.158-5.239-2.158
			c-2.19,0-3.932,0.646-5.471,2.158c-1.526,1.735-2.403,3.472-2.403,5.629v50.176c0,1.947-0.866,3.902-2.405,5.415
			c-1.529,1.512-3.271,2.16-5.459,2.16c-2.183,0-3.936-0.648-5.463-2.16c-1.525-1.513-2.402-3.468-2.402-5.415v-50.176
			c0-2.158-0.867-3.894-2.397-5.629c-1.538-1.512-3.278-2.158-5.243-2.158c-2.192,0-3.937,0.646-5.462,2.158
			c-1.53,1.735-2.403,3.472-2.403,5.629v50.176c0,1.947-0.877,3.902-2.406,5.415c-1.529,1.512-3.282,2.16-5.459,2.16
			c-2.194,0-3.936-0.648-5.465-2.16c-1.536-1.513-2.4-3.468-2.4-5.415v-50.176c0-2.158-0.877-3.894-2.405-5.629
			c-1.53-1.512-3.283-2.158-5.248-2.158c-2.182,0-3.933,0.646-5.459,2.158c-1.529,1.735-2.406,3.472-2.406,5.629v77.215
			c0,4.761,1.529,9.299,4.371,13.416c2.461,3.369,8.271,7.31,15.809,8.232v93.699c0,4.348,1.255,8.04,3.76,11.081
			c2.516,3.049,5.556,4.571,8.966,4.571h12.9c3.403,0,6.451-1.521,8.959-4.571c2.507-3.041,3.76-6.732,3.76-11.081V-299.992z"/>
	</g>
</g>
</svg>
