<?xml version="1.0" encoding="utf-8"?>
<!-- Generator: Adobe Illustrator 16.0.0, SVG Export Plug-In . SVG Version: 6.00 Build 0)  -->
<!DOCTYPE svg PUBLIC "-//W3C//DTD SVG 1.1//EN" "http://www.w3.org/Graphics/SVG/1.1/DTD/svg11.dtd">
<svg version="1.1" xmlns="http://www.w3.org/2000/svg" xmlns:xlink="http://www.w3.org/1999/xlink" x="0px" y="0px" width="256px"
	 height="256px" viewBox="-535.5 -426.5 256 256" enable-background="new -535.5 -426.5 256 256" xml:space="preserve">
<g id="Asks">
	<g>
		<path fill="white" d="M-380.116-216.648c8.204,0,16.643-0.763,25.356-2.293c11.771,8.407,24.828,14.262,39.679,18.084
			c3.318,1.014,7.425,1.782,12.034,2.293c1.278,0.252,2.303-0.261,3.327-1.021c0.765-0.77,1.531-1.779,1.791-3.062
			c0-0.25,0.252-0.5,0.252-1.01c0-0.262-0.252-0.512-0.252-0.771c0-0.25,0-0.512-0.26-1.008c0-0.264-0.252-0.51-0.252-0.51
			c-0.262-0.266-0.262-0.512-0.516-0.775c-0.262-0.495-0.509-0.76-0.509-0.76c-0.257-0.248-0.517-0.512-0.767-0.758
			c-0.263-0.264-0.515-0.512-0.515-0.512c-0.515-0.773-1.54-1.781-3.327-3.562c-1.793-1.791-3.068-3.312-3.847-4.334
			c-0.763-1.021-1.791-2.293-3.067-4.074c-1.54-1.782-2.565-3.563-3.583-5.606c-1.024-1.78-2.049-3.821-3.077-6.114
			c12.033-6.877,21.249-15.273,27.907-25.213c6.913-9.681,10.242-20.367,10.242-31.841c0-11.461-3.591-22.413-10.754-32.599
			c-7.176-10.181-16.891-18.59-29.188-25.216c2.305,7.137,3.33,14.264,3.33,21.402c0,12.73-3.068,24.7-9.466,36.163
			c-6.409,11.459-15.626,21.397-27.396,30.06c-11.269,7.889-23.817,14.004-37.889,18.34c-14.086,4.318-28.672,6.361-44.035,6.361
			c-2.816,0-7.164-0.261-12.545-0.513C-428.233-223.016-405.707-216.648-380.116-216.648z"/>
		<path fill="white"  d="M-525.259-294.083c6.65,9.94,15.865,18.351,27.647,25.224c-0.764,2.293-1.791,4.323-2.817,6.364
			c-1.026,1.783-2.304,3.563-3.581,5.349c-1.278,1.78-2.304,3.053-3.08,4.073c-0.766,1.021-2.041,2.552-3.832,4.335
			c-1.79,1.78-2.816,2.803-3.331,3.562c0,0-0.251,0.245-0.513,0.512c-0.25,0.246-0.514,0.511-0.765,0.756
			c0,0-0.262,0.265-0.513,0.775c-0.263,0.245-0.263,0.495-0.514,0.758c0,0-0.25,0.25-0.25,0.76
			c-0.263,0.267-0.263,0.513-0.263,0.773c0,0.247-0.251,0.512-0.251,0.758c0,0.512,0.251,0.762,0.251,1.022
			c0.263,1.271,0.764,2.291,1.539,3.054c1.026,0.76,2.042,1.02,3.069,1.02h0.512c4.608-0.512,8.703-1.271,12.285-2.293
			c14.598-3.821,27.908-9.676,39.678-18.084c8.451,1.531,16.904,2.293,25.093,2.293c18.18,0,35.072-3.313,50.432-9.682
			c15.615-6.617,27.898-15.271,36.865-26.484c8.961-11.211,13.309-23.433,13.309-36.673c0-12.994-4.348-25.213-13.309-36.425
			c-8.967-11.212-21.25-19.871-36.865-26.483c-15.358-6.366-32.251-9.68-50.431-9.68c-18.181,0-35.072,3.314-50.434,9.68
			c-15.615,6.613-27.899,15.272-36.862,26.484c-8.953,11.211-13.31,23.43-13.31,36.424
			C-535.5-314.451-532.17-304.012-525.259-294.083z"/>
	</g>
</g>
</svg>
