<?xml version="1.0" encoding="utf-8"?>
<!-- Generator: Adobe Illustrator 16.0.0, SVG Export Plug-In . SVG Version: 6.00 Build 0)  -->
<!DOCTYPE svg PUBLIC "-//W3C//DTD SVG 1.1//EN" "http://www.w3.org/Graphics/SVG/1.1/DTD/svg11.dtd">
<svg version="1.1" xmlns="http://www.w3.org/2000/svg" xmlns:xlink="http://www.w3.org/1999/xlink" x="0px" y="0px" width="256px"
	 height="256px" viewBox="-826.5 -426.5 256 256" enable-background="new -826.5 -426.5 256 256" xml:space="preserve">
<g id="Jokes">
	<g>
		<path fill="white"  d="M-698.499-426.5c-70.693,0-128.001,57.31-128.001,128.003c0,70.687,57.308,127.997,128.001,127.997
			c70.689,0,127.999-57.311,127.999-127.997C-570.5-369.189-627.81-426.5-698.499-426.5z M-768.678-336.571
			c4.782-8.281,12.504-14.213,21.747-16.686c9.22-2.49,18.886-1.208,27.177,3.579c4.487,2.586,6.02,8.326,3.432,12.812
			c-2.589,4.492-8.326,6.023-12.812,3.426c-3.948-2.274-8.534-2.893-12.943-1.702c-4.401,1.18-8.081,4.004-10.358,7.952
			c-1.732,3.012-4.893,4.69-8.125,4.69c-1.593,0-3.205-0.408-4.684-1.259C-769.735-326.352-771.265-332.092-768.678-336.571z
			 M-698.499-222.5c-35.352,0-64.001-26.653-64.001-62h127.999C-634.501-249.153-663.155-222.5-698.499-222.5z M-631.753-323.759
			c-1.478,0.851-3.088,1.259-4.682,1.259c-3.239,0-6.394-1.679-8.129-4.691c-2.283-3.953-5.958-6.773-10.363-7.953
			c-4.396-1.197-8.999-0.579-12.944,1.702c-4.481,2.598-10.222,1.066-12.808-3.426c-2.592-4.487-1.059-10.228,3.429-12.813
			c8.284-4.783,17.928-6.059,27.179-3.585c9.246,2.479,16.972,8.412,21.751,16.694C-625.73-332.086-627.262-326.351-631.753-323.759
			z"/>
	</g>
</g>
</svg>
